<svg width="79" height="79" viewBox="0 0 79 79" fill="none" xmlns="http://www.w3.org/2000/svg">
<circle cx="39" cy="39" r="39" fill="white" stroke="#71828A" stroke-opacity="0.2"/>
<path opacity="0.2" fill-rule="evenodd" clip-rule="evenodd" d="M43.9187 50.548H33.2871V49.8483C33.2871 47.7711 32.5408 45.7505 31.129 43.9644C29.4805 41.8809 28.7681 39.2741 29.1239 36.6239C29.7101 32.252 33.3617 28.7196 37.8049 28.2242C40.6279 27.91 43.4616 28.793 45.5659 30.6484C47.6723 32.5053 48.8801 35.1687 48.8801 37.9547C48.8801 40.1914 48.1337 42.2972 46.722 44.0442C45.3717 45.7171 44.6275 47.7635 44.6275 49.805V50.5047L43.9187 50.548Z" fill="#0074E4"/>
<path fill-rule="evenodd" clip-rule="evenodd" d="M60.915 28.7225L60.0922 24.6619H55.9678V26.0611H58.0367L55.4773 29.2193C55.4461 29.1569 55.4152 29.0944 55.3842 29.0318L55.384 29.0312L55.3836 29.0305L55.3836 29.0305L55.3836 29.0304L55.3835 29.0304L55.3835 29.0303L55.3835 29.0303C55.277 28.815 55.1706 28.5998 55.0527 28.391L53.8153 29.0746C54.0648 29.5146 54.2895 29.9687 54.4971 30.429L53.7394 31.3638L49.4697 27.851L44.2886 34.6702C43.9555 34.5338 43.5919 34.4568 43.2099 34.4568C41.6464 34.4568 40.3749 35.7119 40.3749 37.2553V38.6546H37.5398V37.2553C37.5398 35.7119 36.2684 34.4568 34.7048 34.4568C34.3227 34.4568 33.9592 34.5338 33.6261 34.6695L28.4451 27.8501L24.1755 31.3629L23.4192 30.4296C23.6346 29.9525 23.8664 29.4816 24.1257 29.0269L22.891 28.3413C22.7574 28.5753 22.6371 28.8173 22.5168 29.0592L22.5168 29.0592L22.5168 29.0592L22.5168 29.0592C22.4904 29.1124 22.464 29.1655 22.4374 29.2186L19.8783 26.0611H21.9472V24.6619H17.8228L17 28.7225L18.3899 28.9974L18.8002 26.9713L21.7919 30.6626C21.7701 30.7176 21.7466 30.7718 21.723 30.826C21.6929 30.8952 21.6629 30.9642 21.6366 31.0349L22.2809 31.2665L23.972 33.3528L28.2074 29.8693L32.4998 35.5189C32.1114 35.9974 31.8697 36.5956 31.8697 37.2553C31.8697 38.7987 33.1412 40.0538 34.7048 40.0538H36.1223V49.149H33.2873C32.115 49.149 31.1609 50.0907 31.1609 51.248C31.1609 51.6986 31.3083 52.1141 31.5543 52.4562L30.9739 53.6498C31.2214 53.7676 31.475 53.871 31.7283 53.9742L31.8711 54.0325C31.8711 54.0374 31.8697 54.0416 31.8697 54.0465C31.8697 54.7916 32.268 55.4437 32.8627 55.8159C32.6868 56.1216 32.5784 56.4693 32.5784 56.845C32.5784 58.0022 33.5324 58.944 34.7048 58.944H43.2099C44.3822 58.944 45.3363 58.0023 45.3363 56.845C45.3363 56.4693 45.2279 56.1216 45.052 55.8159C45.6467 55.4437 46.045 54.7917 46.045 54.0465C46.045 54.044 46.0447 54.0418 46.0443 54.0395L46.0439 54.0365L46.0436 54.0325L46.1498 53.9889L46.2113 53.9637L46.2114 53.9637C46.4562 53.8636 46.7008 53.7636 46.9409 53.6498L46.3604 52.4562C46.6064 52.1141 46.7538 51.6984 46.7538 51.248C46.7538 50.0908 45.7999 49.149 44.6275 49.149H41.7924V40.0537H43.2099C44.7735 40.0537 46.045 38.7986 46.045 37.2551C46.045 36.5954 45.8034 35.9972 45.4155 35.518L49.7077 29.8684L53.9432 33.3519L55.5649 31.351L56.2991 31.0901C56.2687 31.0066 56.2334 30.9246 56.198 30.8425L56.198 30.8424C56.1723 30.7827 56.1465 30.723 56.1227 30.6626L59.1151 26.9714L59.5255 28.9975L60.915 28.7225ZM34.7049 38.6544C33.9232 38.6544 33.2874 38.0268 33.2874 37.2551C33.2874 37.0599 33.3285 36.8746 33.4022 36.7059L34.1379 37.6749L35.2719 36.836L34.5398 35.8726C34.5524 35.871 34.5649 35.8693 34.5773 35.8676C34.6195 35.8617 34.6611 35.8559 34.7049 35.8559C35.4867 35.8559 36.1225 36.4835 36.1225 37.2551V38.6544H34.7049ZM43.9188 54.7459C44.3101 54.7459 44.6276 54.4323 44.6276 54.0462C44.6276 53.6601 44.3101 53.3466 43.9186 53.3465H33.9959C33.6046 53.3465 33.2871 53.6601 33.2871 54.0462C33.2871 54.4325 33.6046 54.7459 33.9959 54.7459H34.7048H43.2099H43.9188ZM43.2101 57.5444H34.7049C34.3136 57.5444 33.9961 57.231 33.9961 56.8447C33.9961 56.4584 34.3136 56.145 34.7049 56.145H43.2101C43.6012 56.145 43.9189 56.4584 43.9189 56.8447C43.9189 57.231 43.6012 57.5444 43.2101 57.5444ZM44.6275 51.9474C45.0188 51.9474 45.3363 51.6338 45.3363 51.2477C45.3363 50.8616 45.0188 50.5481 44.6273 50.548H33.2871C32.8958 50.548 32.5783 50.8616 32.5783 51.2477C32.5783 51.634 32.8958 51.9474 33.2871 51.9474H33.9959H43.9186H44.6275ZM37.54 49.1489V40.0537H40.375V49.1489H37.54ZM43.2101 38.6544C43.9918 38.6544 44.6276 38.0268 44.6276 37.2551C44.6276 37.0599 44.5865 36.8746 44.5135 36.7051L43.7771 37.6741L42.6431 36.8353L43.3752 35.8726C43.362 35.871 43.3489 35.8691 43.3358 35.8673C43.2943 35.8616 43.2532 35.8559 43.2101 35.8559C42.4284 35.8559 41.7926 36.4835 41.7926 37.2551V38.6544H43.2101Z" fill="#0074E4"/>
<path fill-rule="evenodd" clip-rule="evenodd" d="M32.2348 21.8264L31.6741 20.5417C30.7556 20.9322 29.8626 21.4009 29.0205 21.9332L29.786 23.1114C30.5628 22.6197 31.3864 22.1873 32.2348 21.8264Z" fill="#0074E4"/>
<path fill-rule="evenodd" clip-rule="evenodd" d="M37.5982 20.5167L37.4876 19.1216C36.4862 19.1992 35.4889 19.3595 34.5215 19.5959L34.8638 20.9538C35.7539 20.7356 36.6746 20.5887 37.5982 20.5167Z" fill="#0074E4"/>
<path fill-rule="evenodd" clip-rule="evenodd" d="M27.5817 24.7709L26.6333 23.7312C25.892 24.3888 25.1995 25.1143 24.5723 25.8846L25.6786 26.7606C26.257 26.0478 26.897 25.379 27.5817 24.7709Z" fill="#0074E4"/>
<path fill-rule="evenodd" clip-rule="evenodd" d="M22.1116 39.605L20.7083 39.7987C20.8472 40.7789 21.069 41.7527 21.3673 42.693L22.7197 42.2747C22.4447 41.4087 22.2405 40.5096 22.1116 39.605Z" fill="#0074E4"/>
<path fill-rule="evenodd" clip-rule="evenodd" d="M48.9419 21.9647C48.0998 21.4274 47.2097 20.9572 46.2946 20.5654L45.7297 21.8486C46.5739 22.2102 47.396 22.6447 48.1721 23.1401L48.9419 21.9647Z" fill="#0074E4"/>
<path fill-rule="evenodd" clip-rule="evenodd" d="M43.451 19.6092C42.4829 19.3692 41.4863 19.2069 40.4883 19.1257L40.3721 20.5208C41.2927 20.595 42.2127 20.7454 43.1058 20.9665L43.451 19.6092Z" fill="#0074E4"/>
<path fill-rule="evenodd" clip-rule="evenodd" d="M52.2689 26.8006L53.3774 25.9288C52.7558 25.1577 52.064 24.4309 51.3234 23.7676L50.3708 24.8044C51.0561 25.4167 51.6948 26.0883 52.2689 26.8006Z" fill="#0074E4"/>
<path fill-rule="evenodd" clip-rule="evenodd" d="M55.1782 42.3274L56.5291 42.75C56.831 41.8089 57.0563 40.8365 57.1981 39.8585L55.7948 39.6604C55.6637 40.5622 55.456 41.4598 55.1782 42.3274Z" fill="#0074E4"/>
<path fill-rule="evenodd" clip-rule="evenodd" d="M55.6877 34.2041C55.8529 35.0989 55.9465 36.0154 55.9641 36.9284L57.3817 36.9011C57.3625 35.9139 57.2619 34.9218 57.0818 33.9529L55.6877 34.2041Z" fill="#0074E4"/>
<path fill-rule="evenodd" clip-rule="evenodd" d="M52.6721 47.187L53.814 48.0167C54.4079 47.2191 54.9388 46.3699 55.3917 45.4931L54.1287 44.8579C53.7097 45.6675 53.2199 46.4516 52.6721 47.187Z" fill="#0074E4"/>
<path fill-rule="evenodd" clip-rule="evenodd" d="M48.7185 51.0028L49.5321 52.148C50.3529 51.5799 51.1303 50.9425 51.8434 50.2528L50.8511 49.2537C50.1941 49.8902 49.4762 50.478 48.7185 51.0028Z" fill="#0074E4"/>
<path fill-rule="evenodd" clip-rule="evenodd" d="M22.4985 45.4422C22.95 46.3231 23.478 47.1738 24.0677 47.9707L25.2123 47.1452C24.6672 46.4085 24.1796 45.6235 23.7636 44.8105L22.4985 45.4422Z" fill="#0074E4"/>
<path fill-rule="evenodd" clip-rule="evenodd" d="M22.237 34.151L20.8429 33.8943C20.6607 34.8598 20.5565 35.8512 20.5332 36.8425L21.9507 36.874C21.9719 35.9582 22.0682 35.0416 22.237 34.151Z" fill="#0074E4"/>
<path fill-rule="evenodd" clip-rule="evenodd" d="M26.0303 50.2144C26.7397 50.9029 27.5145 51.5431 28.3331 52.1161L29.1525 50.9735C28.3955 50.4446 27.6796 49.8534 27.0255 49.2168L26.0303 50.2144Z" fill="#0074E4"/>
</svg>
