<svg width="79" height="79" viewBox="0 0 79 79" fill="none" xmlns="http://www.w3.org/2000/svg">
<circle cx="39" cy="39" r="39" fill="white" stroke="#71828A" stroke-opacity="0.2"/>
<circle opacity="0.1" cx="38.9744" cy="38.9742" r="14.8197" fill="#0074E4"/>
<path fill-rule="evenodd" clip-rule="evenodd" d="M38.9745 19C49.988 19 58.9486 27.9607 58.9486 38.9743C58.9486 42.3956 58.0827 45.6179 56.5609 48.4357C58.724 52.7766 59.0319 55.9107 57.4385 57.5041C56.7426 58.2006 55.7832 58.5072 54.6427 58.5072C52.8785 58.5072 50.6782 57.7676 48.3495 56.6052C45.5519 58.0987 42.3611 58.9486 38.9745 58.9486C27.9609 58.9486 19.0002 49.9878 19.0002 38.9743C19.0002 35.5845 19.8521 32.3898 21.3481 29.5902C19.3765 25.6521 18.7102 22.2449 20.4448 20.5104C22.0369 18.9163 25.1717 19.2249 29.5131 21.3879C32.3308 19.866 35.5531 19 38.9745 19ZM28.1839 22.1786C24.8708 20.6521 22.4101 20.3673 21.356 21.4214C20.3469 22.4304 20.5859 24.8794 22.1317 28.2572C23.6871 25.8209 25.7547 23.7443 28.1839 22.1786ZM38.9745 57.6598C28.671 57.6598 20.2889 49.2777 20.2889 38.9742C20.2889 36.1166 20.9358 33.4084 22.0873 30.9845C23.8185 34.0825 26.2412 37.4129 28.8695 40.4671L26.606 40.92L26.8592 42.1835L30.4231 41.4709L31.8412 37.9252L30.6446 37.4465L29.7986 39.5618C26.6259 35.877 24.2992 32.4807 22.8063 29.6263C26.0427 24.0496 32.0756 20.2887 38.9745 20.2887C49.278 20.2887 57.6602 28.6708 57.6602 38.9743C57.6602 45.8731 53.8992 51.906 48.3231 55.1424C46.2438 54.0496 43.9288 52.5579 41.5125 50.7056L40.7284 51.7281C42.7187 53.2546 44.8624 54.7024 46.952 55.8672C44.5312 57.0148 41.8268 57.6598 38.9745 57.6598ZM49.6871 55.8197C52.9428 57.3222 55.4479 57.6722 56.5273 56.5928C57.5814 55.5387 57.2966 53.0774 55.7703 49.7649C54.2033 52.1946 52.1253 54.2636 49.6871 55.8197Z" fill="#0074E4"/>
<path fill-rule="evenodd" clip-rule="evenodd" d="M45.4177 43.4845C45.4177 40.6423 43.1053 38.3299 40.2631 38.3299H37.6858C35.5537 38.3299 33.8198 36.596 33.8198 34.4639C33.8198 32.3318 35.5537 30.5979 37.6858 30.5979H40.2631C42.3952 30.5979 44.1291 32.3318 44.1291 34.4639V35.1083H45.4177V34.4639C45.4177 31.6217 43.1053 29.3093 40.2631 29.3093H39.6187V26.7319H38.33V29.3093H37.6856C34.8434 29.3093 32.531 31.6217 32.531 34.4639C32.531 37.3061 34.8434 39.6185 37.6856 39.6185H40.263C42.3951 39.6185 44.1289 41.3524 44.1289 43.4845C44.1289 45.6166 42.3951 47.3505 40.263 47.3505H37.6856C35.5535 47.3505 33.8197 45.6166 33.8197 43.4845V42.8401H32.531V43.4845C32.531 46.3267 34.8434 48.6392 37.6856 48.6392H38.33V51.2165H39.6187V48.6392H40.2631C43.1052 48.6392 45.4177 46.3267 45.4177 43.4845Z" fill="#0074E4"/>
</svg>
