<svg width="79" height="79" viewBox="0 0 79 79" fill="none" xmlns="http://www.w3.org/2000/svg">
<circle cx="39" cy="39" r="39" fill="white" stroke="#71828A" stroke-opacity="0.2"/>
<path opacity="0.1" fill-rule="evenodd" clip-rule="evenodd" d="M38.9742 40.2628C38.2622 40.2628 37.6855 39.6862 37.6855 38.9742C37.6855 38.2622 38.2622 37.6855 38.9742 37.6855C39.2101 37.6855 39.4285 37.7538 39.6186 37.8639V19.6604C39.404 19.6532 39.1901 19.6443 38.9742 19.6443C28.2982 19.6443 19.6443 28.2982 19.6443 38.9742C19.6443 49.6502 28.2983 58.3041 38.9742 58.3041C39.19 58.3041 39.404 58.295 39.6186 58.288V40.0843C39.4283 40.1945 39.2099 40.2628 38.9742 40.2628Z" fill="#0074E4"/>
<path fill-rule="evenodd" clip-rule="evenodd" d="M57.6191 40.2211L58.9052 40.3055C58.9335 39.866 58.9484 39.4177 58.9484 38.9744H57.6597C57.6597 39.3931 57.6462 39.8087 57.6191 40.2211Z" fill="#0074E4"/>
<path fill-rule="evenodd" clip-rule="evenodd" d="M24.9464 51.3196L23.98 52.1726C24.5561 52.8247 25.1771 53.4438 25.8273 54.0128L26.6758 53.0425C26.0675 52.5109 25.4857 51.9304 24.9464 51.3196Z" fill="#0074E4"/>
<path fill-rule="evenodd" clip-rule="evenodd" d="M27.8994 55.6C28.6223 56.0819 29.3827 56.5213 30.1603 56.904L30.7299 55.7474C30.0025 55.3892 29.2912 54.9795 28.6146 54.5271L27.8994 55.6Z" fill="#0074E4"/>
<path fill-rule="evenodd" clip-rule="evenodd" d="M32.5742 57.9007C33.3951 58.1784 34.2443 58.4046 35.0981 58.5727L35.3467 57.3079C34.5484 57.1513 33.7546 56.9399 32.9866 56.6797L32.5742 57.9007Z" fill="#0074E4"/>
<path fill-rule="evenodd" clip-rule="evenodd" d="M54.5044 49.3685L55.5746 50.0856C56.0579 49.3647 56.4986 48.6043 56.8832 47.8267L55.7286 47.2551C55.3684 47.982 54.9568 48.6933 54.5044 49.3685Z" fill="#0074E4"/>
<path fill-rule="evenodd" clip-rule="evenodd" d="M20.6541 42.6714L19.3906 42.9246C19.5613 43.7745 19.7901 44.6225 20.071 45.4439L21.2907 45.0277C21.0279 44.2585 20.8133 43.4659 20.6541 42.6714Z" fill="#0074E4"/>
<path fill-rule="evenodd" clip-rule="evenodd" d="M21.0759 47.8506C21.4612 48.6264 21.9026 49.3854 22.3871 50.1051L23.4561 49.3867C23.0032 48.7127 22.5908 48.0033 22.23 47.2771L21.0759 47.8506Z" fill="#0074E4"/>
<path fill-rule="evenodd" clip-rule="evenodd" d="M37.768 57.6211L37.6855 58.9078C38.1114 58.9349 38.5412 58.9484 38.9742 58.9484C39.4156 58.9484 39.8601 58.9342 40.2938 58.9059L40.2094 57.6199C39.4027 57.6727 38.5753 57.6732 37.768 57.6211Z" fill="#0074E4"/>
<path fill-rule="evenodd" clip-rule="evenodd" d="M56.6663 45.0011L57.8866 45.4167C58.1662 44.5965 58.3944 43.7472 58.5639 42.894L57.2997 42.6421C57.1412 43.44 56.9278 44.2332 56.6663 45.0011Z" fill="#0074E4"/>
<path fill-rule="evenodd" clip-rule="evenodd" d="M42.6301 57.3021L42.8814 58.5656C43.7325 58.3968 44.5805 58.17 45.4026 57.891L44.9877 56.6699C44.2197 56.9316 43.4266 57.1436 42.6301 57.3021Z" fill="#0074E4"/>
<path fill-rule="evenodd" clip-rule="evenodd" d="M51.2886 53.0289L52.1378 53.998C52.7885 53.4278 53.4097 52.8072 53.9831 52.1545L53.0153 51.304C52.4787 51.9143 51.8975 52.4947 51.2886 53.0289Z" fill="#0074E4"/>
<path fill-rule="evenodd" clip-rule="evenodd" d="M47.2397 55.7378L47.8106 56.8932C48.5864 56.5098 49.346 56.0703 50.0683 55.587L49.3519 54.5161C48.6759 54.9679 47.9652 55.3789 47.2397 55.7378Z" fill="#0074E4"/>
<path fill-rule="evenodd" clip-rule="evenodd" d="M20.2887 38.9743C20.2887 28.6708 28.6708 20.2887 38.9743 20.2887C42.2893 20.2887 45.5008 21.1599 48.3383 22.8073L46.4665 23.556L46.9453 24.7526L50.5722 23.3021V19.6444H49.2836V21.8777C46.1765 19.9993 42.6353 19 38.9743 19C27.9607 19 19 27.9607 19 38.9743C19 39.4176 19.0148 39.866 19.0432 40.3049L20.3292 40.2205C20.3021 39.8087 20.2887 39.393 20.2887 38.9743Z" fill="#0074E4"/>
<path fill-rule="evenodd" clip-rule="evenodd" d="M53.1496 34.4639C53.1496 34.0928 53.0393 33.7487 52.8571 33.4543L56.3872 27.9072C56.585 27.9755 56.7944 28.0206 57.0154 28.0206C58.0811 28.0206 58.9485 27.1534 58.9485 26.0875C58.9485 25.0217 58.0813 24.1546 57.0156 24.1546C55.9498 24.1546 55.0825 25.0218 55.0825 26.0877C55.0825 26.4588 55.1927 26.8029 55.375 27.0973L51.8447 32.6444C51.6469 32.5761 51.4374 32.531 51.2165 32.531C50.7082 32.531 50.2487 32.7321 49.9034 33.0536L47.3235 31.5058L47.3291 31.4668V31.4668V31.4667V31.4667V31.4667V31.4667V31.4667V31.4666V31.4666V31.4666V31.4666V31.4666C47.3398 31.3927 47.3505 31.3189 47.3505 31.2423C47.3505 30.1766 46.4833 29.3093 45.4175 29.3093C44.3516 29.3093 43.4844 30.1765 43.4844 31.2423C43.4844 31.5768 43.5779 31.8873 43.728 32.1618L39.7074 37.1876C39.6915 37.1811 39.6746 37.1764 39.6576 37.1717L39.6576 37.1717L39.6576 37.1717L39.6576 37.1717C39.6444 37.168 39.6311 37.1644 39.6184 37.1599V22.866H38.974C30.092 22.866 22.8657 30.0921 22.8657 38.9743C22.8657 47.8565 30.0921 55.0825 38.9743 55.0825H39.6186V40.7887C40.3666 40.5219 40.9072 39.8132 40.9072 38.9743C40.9072 38.6399 40.8138 38.3293 40.6637 38.0548L44.6843 33.029C44.9111 33.1225 45.1578 33.1752 45.4175 33.1752C45.9258 33.1752 46.3853 32.9741 46.7306 32.6526L49.3105 34.2003L49.3049 34.2393V34.2393V34.2393V34.2394V34.2394V34.2394V34.2394V34.2394V34.2395V34.2395V34.2395V34.2395C49.2942 34.3133 49.2835 34.3872 49.2835 34.4638C49.2835 35.5295 50.1507 36.3968 51.2165 36.3968C52.2824 36.3968 53.1496 35.5296 53.1496 34.4639ZM57.0155 25.4433C57.3706 25.4433 57.6599 25.7326 57.6599 26.0877C57.6599 26.4427 57.3706 26.7321 57.0155 26.7321C56.6605 26.7321 56.3712 26.4427 56.3712 26.0877C56.3712 25.7326 56.6605 25.4433 57.0155 25.4433ZM33.1585 30.592C34.6327 31.2441 36.3892 31.7608 38.3299 31.8588V24.6577C37.0638 25.5205 34.7905 27.3993 33.1585 30.592ZM32.0303 30.0431C30.6334 29.3002 29.585 28.5109 29.0019 28.0264C31.0928 26.1204 33.7281 24.8041 36.645 24.3414C35.2571 25.4755 33.4265 27.3351 32.0303 30.0431ZM29.9685 38.3299C30.0491 35.549 30.6366 33.1933 31.4769 31.2249C29.8808 30.3834 28.7068 29.4768 28.0811 28.942C25.7828 31.4361 24.3261 34.7166 24.1707 38.3299H29.9685ZM29.9684 39.6185C30.0483 42.4001 30.6366 44.7557 31.4767 46.7236C29.8807 47.5651 28.7067 48.4716 28.0811 49.0058C25.7823 46.5123 24.3261 43.232 24.1707 39.6185H29.9684ZM36.645 53.607C35.2571 52.473 33.4265 50.6135 32.0303 47.9053C30.6334 48.6475 29.585 49.4375 29.0019 49.922C31.0921 51.828 33.7274 53.1443 36.645 53.607ZM33.1837 47.346C34.6528 46.6984 36.4002 46.1875 38.3299 46.0902V53.2776C37.0748 52.404 34.8164 50.5109 33.1837 47.346ZM32.6334 46.1642C34.2422 45.4548 36.174 44.8976 38.3299 44.8003H38.3306V40.7893C37.7848 40.5946 37.3551 40.1648 37.1604 39.6191H31.2578C31.3357 42.181 31.8705 44.3505 32.6334 46.1642ZM37.1599 38.3299H31.2565C31.3332 35.7577 31.8597 33.5864 32.6123 31.7758C34.2256 32.4891 36.1651 33.051 38.3301 33.1482V37.1597C37.7842 37.3544 37.3544 37.7842 37.1599 38.3299ZM38.3299 38.9741C38.3299 39.3292 38.6193 39.6185 38.9743 39.6185C39.3292 39.6185 39.6186 39.3292 39.6187 38.9741C39.6187 38.6191 39.3294 38.3297 38.9743 38.3297C38.6193 38.3297 38.3299 38.6191 38.3299 38.9741ZM45.4176 31.8866C45.0626 31.8866 44.7732 31.5972 44.7732 31.2422C44.7732 30.8871 45.0626 30.5978 45.4176 30.5978C45.7727 30.5978 46.062 30.8871 46.062 31.2422C46.062 31.5972 45.7725 31.8866 45.4176 31.8866ZM50.5721 34.4639C50.5721 34.819 50.8615 35.1083 51.2165 35.1083C51.5716 35.1083 51.8609 34.819 51.8609 34.4639C51.8609 34.1089 51.5716 33.8195 51.2165 33.8195C50.8615 33.8195 50.5721 34.1089 50.5721 34.4639Z" fill="#0074E4"/>
</svg>
